<svg width="172" height="60" viewBox="0 0 172 60" fill="none" xmlns="http://www.w3.org/2000/svg">
<path d="M119.32 22.8046C118.153 22.8046 116.986 23.1528 115.935 23.617C115.585 23.1528 115.002 22.8046 114.301 22.8046C113.368 22.8046 112.551 23.501 112.551 24.4294V38.4723C112.551 39.4007 113.368 40.0971 114.301 40.0971C115.352 40.0971 116.169 39.2847 116.169 38.4723V34.8745C117.102 35.3387 118.153 35.5708 119.32 35.5708C123.054 35.5708 126.205 32.6694 126.205 29.1877C126.089 25.706 123.054 22.8046 119.32 22.8046ZM122.471 29.3038C122.471 30.1162 122.121 30.9286 121.537 31.5089C120.954 32.0892 120.137 32.4373 119.32 32.4373C118.386 32.4373 117.686 32.0892 117.102 31.5089C116.519 31.0446 116.169 30.2322 116.169 29.3038C116.169 28.3753 116.519 27.679 117.102 27.0987C117.686 26.5184 118.503 26.1703 119.32 26.1703C120.137 26.1703 120.954 26.5184 121.537 27.0987C122.121 27.679 122.471 28.4914 122.471 29.3038Z" fill="#8A8C8F"/>
<path d="M146.279 22.8046C145.579 22.8046 144.995 23.1528 144.762 23.7331C143.712 23.0367 142.545 22.8046 141.261 22.8046C139.394 22.8046 137.76 23.501 136.476 24.7776C135.192 25.9382 134.609 27.5629 134.609 29.3038C134.609 31.0446 135.309 32.5534 136.476 33.83C137.76 34.9906 139.394 35.6869 141.261 35.6869C142.545 35.6869 143.712 35.3387 144.762 34.7585C144.995 35.3387 145.579 35.6869 146.279 35.6869C147.213 35.6869 147.913 34.9906 147.913 34.1782V24.3134C148.03 23.501 147.213 22.8046 146.279 22.8046ZM144.645 29.1877C144.645 30.1162 144.295 30.9286 143.712 31.6249C143.128 32.2052 142.311 32.5534 141.378 32.5534C140.444 32.5534 139.627 32.2052 139.043 31.6249C138.46 31.0446 138.11 30.1162 138.11 29.1877C138.11 28.2593 138.46 27.3308 139.043 26.7505C139.627 26.1703 140.444 25.8221 141.378 25.8221C142.311 25.8221 143.128 26.1703 143.712 26.7505C144.295 27.4469 144.645 28.2593 144.645 29.1877Z" fill="#8A8C8F"/>
<path d="M56.8816 21.6441V33.714C56.8816 34.7585 56.0646 35.5709 55.0143 35.5709C53.9639 35.5709 53.147 34.7585 53.147 33.714V21.6441C53.0303 20.4835 53.9639 19.6711 55.0143 19.6711C56.0646 19.6711 56.8816 20.4835 56.8816 21.6441Z" fill="#8A8C8F"/>
<path d="M78.3555 21.9923C77.3052 21.9923 76.4882 21.1799 76.4882 20.1354C76.4882 19.0909 77.3052 18.1624 78.3555 18.1624C79.4059 18.1624 80.3396 18.9748 80.3396 20.1354C80.2228 21.1799 79.4059 21.9923 78.3555 21.9923Z" fill="#8A8C8F"/>
<path d="M96.0951 28.8396C96.0951 29.768 95.8617 30.5804 95.5116 31.5089C95.1615 32.3213 94.6947 33.0176 94.1111 33.5979C93.5276 34.1782 92.8273 34.7584 92.0104 34.9906C91.1934 35.3387 90.2598 35.5708 89.3261 35.5708C88.3925 35.5708 87.5755 35.4548 86.6419 35.1066C85.8249 34.7584 85.1247 34.2942 84.4244 33.7139C83.8409 33.1336 83.2574 32.3212 83.024 31.6249C82.6738 30.8125 82.5571 29.8841 82.5571 28.9556C82.5571 28.0272 82.6738 27.2148 83.024 26.2863C83.3741 25.4739 83.8409 24.7776 84.4244 24.0812C85.008 23.501 85.7082 22.9207 86.5252 22.6886C87.3421 22.3404 88.2758 22.1083 89.2094 22.1083C90.1431 22.1083 90.96 22.2243 91.8937 22.6886C92.7106 23.0367 93.4109 23.501 94.1111 24.0812C94.6947 24.6615 95.2782 25.4739 95.5116 26.2863C95.8617 27.0987 96.0951 28.0272 96.0951 28.8396ZM92.7106 28.8396C92.7106 26.9826 91.1934 25.4739 89.3261 25.4739C87.4588 25.4739 85.9416 26.9826 85.9416 28.8396C85.9416 30.6965 87.4588 32.2052 89.3261 32.2052C91.1934 32.3212 92.7106 30.6965 92.7106 28.8396Z" fill="#8A8C8F"/>
<path d="M108.349 22.8046C109.633 22.8046 110.45 24.0812 109.983 25.2418C108.816 28.2593 106.832 33.2497 105.899 35.3387C104.498 38.5883 103.098 40.4452 101.814 41.4897C100.53 42.5342 98.6628 41.6058 98.6628 39.981C98.6628 39.2847 99.1296 38.5883 99.7132 38.2401C100.764 37.7759 101.58 36.6154 101.58 35.3387L97.6124 25.2418C97.1456 24.0812 97.9626 22.8046 99.2463 22.8046C99.9466 22.8046 100.647 23.2689 100.88 23.8491L103.098 28.9556C103.331 29.4198 104.031 29.4198 104.148 28.9556L106.365 23.8491C106.599 23.1528 107.299 22.8046 107.999 22.8046H108.349Z" fill="#8A8C8F"/>
<path d="M130.407 18.1624C131.457 18.1624 132.391 18.9748 132.391 20.1354V33.714C132.391 34.7585 131.574 35.6869 130.407 35.6869C129.357 35.6869 128.423 34.8746 128.423 33.714V20.0193C128.423 18.9748 129.24 18.1624 130.407 18.1624Z" fill="#8A8C8F"/>
<path d="M156.899 22.8046C155.849 22.8046 154.682 23.0367 153.632 23.501C153.282 23.0367 152.698 22.8046 151.998 22.8046C151.298 22.8046 150.714 23.0367 150.481 23.501C150.247 23.7331 150.13 24.0812 150.13 24.3134V28.1432V33.9461C150.13 34.7585 150.947 35.4548 151.881 35.4548H151.998C152.114 35.4548 152.114 35.4548 152.231 35.4548C152.231 35.4548 152.231 35.4548 152.348 35.4548C152.465 35.4548 152.465 35.4548 152.581 35.4548H152.698C152.815 35.4548 152.815 35.4548 152.815 35.3387H152.931C153.048 35.3387 153.048 35.2227 153.165 35.2227C153.165 35.2227 153.165 35.2227 153.282 35.2227C153.632 34.9906 153.865 34.6424 153.982 34.2942C153.982 34.1782 153.982 34.1782 153.982 34.1782V34.0621V28.2593C153.982 26.9827 155.266 25.9382 156.899 25.9382C158.533 25.9382 159.934 26.9827 159.934 28.2593V34.0621C159.934 34.8745 160.751 35.6869 161.801 35.6869C162.852 35.6869 163.668 34.9906 163.668 34.0621V28.2593C163.668 25.2418 160.634 22.8046 156.899 22.8046Z" fill="#8A8C8F"/>
<path d="M66.685 22.8046C65.6347 22.8046 64.4676 23.0367 63.4172 23.501C63.0671 23.0367 62.4836 22.8046 61.7833 22.8046C61.0831 22.8046 60.4995 23.0367 60.2661 23.501C60.0327 23.7331 59.916 24.0812 59.916 24.3134V28.1432V33.9461C59.916 34.7585 60.733 35.4548 61.6666 35.4548H61.7833C61.9 35.4548 61.9 35.4548 62.0167 35.4548C62.0167 35.4548 62.0167 35.4548 62.1334 35.4548C62.2502 35.4548 62.2502 35.4548 62.3669 35.4548H62.4836C62.6003 35.4548 62.6003 35.4548 62.6003 35.3387H62.717C62.8337 35.3387 62.8337 35.2227 62.9504 35.2227C62.9504 35.2227 62.9504 35.2227 63.0671 35.2227C63.4172 34.9906 63.6506 34.6424 63.7673 34.2942C63.7673 34.1782 63.7673 34.1782 63.7673 34.1782V34.0621V28.2593C63.7673 26.9827 65.0511 25.9382 66.685 25.9382C68.3189 25.9382 69.7194 26.9827 69.7194 28.2593V34.0621C69.7194 34.8745 70.5363 35.6869 71.5867 35.6869C72.6371 35.6869 73.454 34.9906 73.454 34.0621V28.2593C73.3373 25.2418 70.3029 22.8046 66.685 22.8046Z" fill="#8A8C8F"/>
<path d="M78.3557 22.8046C79.4061 22.8046 80.223 23.617 80.223 24.7776V34.9906C80.223 36.0351 79.9896 37.3117 79.6395 38.3562C79.0559 39.7489 78.1223 40.9094 76.9552 41.7218C75.6714 42.5342 74.0375 41.6058 74.0375 40.0971C74.0375 39.5168 74.3877 38.9365 74.8545 38.5883C75.7881 37.892 76.4884 36.8475 76.4884 35.1066V24.8936C76.3717 23.617 77.3053 22.8046 78.3557 22.8046Z" fill="#8A8C8F"/>
<path d="M26.8879 11.5471C16.6177 11.5471 8.33148 19.7871 8.33148 30.0001C8.33148 40.2131 16.6177 48.4531 26.8879 48.4531C37.1581 48.4531 45.4443 40.2131 45.4443 30.0001C45.4443 19.7871 37.1581 11.5471 26.8879 11.5471ZM19.4187 22.2243C20.7024 22.2243 21.8695 23.2688 21.8695 24.5455C21.8695 25.8221 20.8191 26.9826 19.5354 26.9826C18.2516 26.9826 17.0845 25.9381 17.0845 24.6615C16.9678 23.2688 18.1349 22.2243 19.4187 22.2243ZM38.4419 28.9556C38.0918 29.0717 37.7417 29.1877 37.3915 29.1877H34.4739V32.5534C34.4739 37.3117 30.8559 41.4897 26.071 41.7218C20.9358 41.9539 17.3179 38.1241 17.2012 32.5534V30.9286C17.2012 29.6519 18.1349 28.4914 19.5354 28.4914C20.9358 28.4914 21.9862 29.5359 21.9862 30.8125V32.4373C22.1029 34.8745 23.7368 36.9635 25.6041 36.8474C27.5881 36.8474 29.222 34.9905 29.222 31.5088L28.9886 19.9032C28.9886 18.5105 30.039 17.466 31.4395 17.2339C31.5562 17.2339 32.84 17.0018 33.6569 17.8142C34.3572 18.5105 39.1421 24.6615 39.1421 24.6615C39.1421 24.6615 39.8424 25.4739 39.8424 26.6345C39.8424 27.795 39.3756 28.6074 38.4419 28.9556Z" fill="#861F21"/>
</svg>
